# xmcd
#
# Track frame offsets:
#	180
#	17762
#	31181
#	49049
#	60902
#	74660
#	91066
#	104858
#	117836
#	132964
#
# Disc length: 1967 seconds
#
# Revision: 1
# Processed by: cddbd v1.5.1PL2 Copyright (c) Steve Scherf et al.
# Submitted via: audiograbber 1.83.01
#
DISCID=8307ad0a
DTITLE=Karen Cruise - Strong enough to lean on
DYEAR=1998
DGENRE=Country
TTITLE0=Our song
TTITLE1=The dream lives on 
TTITLE2=Strong enough to lean on
TTITLE3=Real love
TTITLE4=Banks of the river
TTITLE5=Friends
TTITLE6=Behind the wheel
TTITLE7=Take it from someone who knows
TTITLE8=Another dawn
TTITLE9=Our love will stand
EXTD=
EXTT0=
EXTT1=
EXTT2=
EXTT3=
EXTT4=
EXTT5=
EXTT6=
EXTT7=
EXTT8=
EXTT9=
PLAYORDER=
